<svg width="31" height="46" viewBox="0 0 31 46" fill="none" xmlns="http://www.w3.org/2000/svg">
<path d="M12.9929 3.81818V6H12.7287V4.09517H12.7159L12.1832 4.44886V4.1804L12.7287 3.81818H12.9929ZM13.6204 6V5.80824L14.3406 5.01989C14.4251 4.92756 14.4947 4.8473 14.5494 4.77912C14.604 4.71023 14.6445 4.6456 14.6708 4.58523C14.6978 4.52415 14.7113 4.46023 14.7113 4.39347C14.7113 4.31676 14.6928 4.25036 14.6559 4.19425C14.6197 4.13814 14.57 4.09482 14.5067 4.06428C14.4435 4.03374 14.3725 4.01847 14.2937 4.01847C14.2099 4.01847 14.1367 4.03587 14.0742 4.07067C14.0124 4.10476 13.9645 4.1527 13.9304 4.21449C13.897 4.27628 13.8803 4.34872 13.8803 4.43182H13.6289C13.6289 4.30398 13.6584 4.19176 13.7173 4.09517C13.7763 3.99858 13.8565 3.9233 13.9581 3.86932C14.0604 3.81534 14.1751 3.78835 14.3022 3.78835C14.43 3.78835 14.5433 3.81534 14.642 3.86932C14.7408 3.9233 14.8182 3.99609 14.8743 4.08771C14.9304 4.17933 14.9585 4.28125 14.9585 4.39347C14.9585 4.47372 14.9439 4.5522 14.9148 4.62891C14.8864 4.7049 14.8366 4.78977 14.7656 4.88352C14.6953 4.97656 14.5977 5.0902 14.4727 5.22443L13.9826 5.74858V5.76562H14.9968V6H13.6204Z" fill="black"/>
<path d="M23.9631 15.0298C23.8224 15.0298 23.6971 15.0057 23.587 14.9574C23.4776 14.9091 23.3906 14.842 23.326 14.756C23.2621 14.6694 23.2273 14.5689 23.2216 14.4545H23.4901C23.4957 14.5249 23.5199 14.5856 23.5625 14.6367C23.6051 14.6871 23.6609 14.7262 23.7298 14.7539C23.7987 14.7816 23.875 14.7955 23.9588 14.7955C24.0526 14.7955 24.1357 14.7791 24.2081 14.7464C24.2805 14.7138 24.3374 14.6683 24.3786 14.6101C24.4197 14.5518 24.4403 14.4844 24.4403 14.4077C24.4403 14.3274 24.4205 14.2567 24.3807 14.1957C24.3409 14.1339 24.2827 14.0856 24.206 14.0508C24.1293 14.016 24.0355 13.9986 23.9247 13.9986H23.75V13.7642H23.9247C24.0114 13.7642 24.0874 13.7486 24.1527 13.7173C24.2188 13.6861 24.2702 13.642 24.3072 13.5852C24.3448 13.5284 24.3636 13.4616 24.3636 13.3849C24.3636 13.3111 24.3473 13.2468 24.3146 13.1921C24.282 13.1374 24.2358 13.0948 24.1761 13.0643C24.1172 13.0337 24.0476 13.0185 23.9673 13.0185C23.892 13.0185 23.821 13.0323 23.7543 13.06C23.6882 13.087 23.6342 13.1264 23.5923 13.1783C23.5504 13.2294 23.5277 13.2912 23.5241 13.3636H23.2685C23.2727 13.2493 23.3072 13.1491 23.3718 13.0632C23.4364 12.9766 23.521 12.9091 23.6254 12.8608C23.7305 12.8125 23.8459 12.7884 23.9716 12.7884C24.1065 12.7884 24.2223 12.8157 24.3189 12.8704C24.4155 12.9244 24.4897 12.9957 24.5415 13.0845C24.5934 13.1733 24.6193 13.2692 24.6193 13.3722C24.6193 13.495 24.587 13.5998 24.5224 13.6864C24.4585 13.7731 24.3714 13.8331 24.2614 13.8665V13.8835C24.3991 13.9062 24.5067 13.9648 24.5842 14.0593C24.6616 14.1531 24.7003 14.2692 24.7003 14.4077C24.7003 14.5263 24.668 14.6328 24.6033 14.7273C24.5394 14.821 24.4521 14.8949 24.3413 14.9489C24.2305 15.0028 24.1044 15.0298 23.9631 15.0298Z" fill="black"/>
<path d="M3.92045 12.7884C4.00994 12.7891 4.09943 12.8061 4.18892 12.8395C4.27841 12.8729 4.36009 12.9283 4.43395 13.0057C4.50781 13.0824 4.56712 13.1871 4.61186 13.32C4.65661 13.4528 4.67898 13.6193 4.67898 13.8196C4.67898 14.0135 4.66051 14.1857 4.62358 14.3363C4.58736 14.4862 4.5348 14.6126 4.46591 14.7156C4.39773 14.8185 4.31463 14.8967 4.21662 14.9499C4.11932 15.0032 4.00923 15.0298 3.88636 15.0298C3.7642 15.0298 3.65518 15.0057 3.5593 14.9574C3.46413 14.9084 3.38601 14.8406 3.32493 14.7539C3.26456 14.6665 3.22585 14.5653 3.20881 14.4503H3.46875C3.49219 14.5504 3.53871 14.6332 3.60831 14.6985C3.67862 14.7631 3.77131 14.7955 3.88636 14.7955C4.05469 14.7955 4.1875 14.7219 4.2848 14.5749C4.38281 14.4279 4.43182 14.2202 4.43182 13.9517H4.41477C4.375 14.0114 4.32777 14.0629 4.27308 14.1062C4.21839 14.1495 4.15767 14.1829 4.09091 14.2063C4.02415 14.2298 3.95313 14.2415 3.87784 14.2415C3.75284 14.2415 3.63814 14.2106 3.53374 14.1488C3.43004 14.0863 3.34695 14.0007 3.28445 13.892C3.22266 13.7827 3.19176 13.6577 3.19176 13.517C3.19176 13.3835 3.22159 13.2614 3.28125 13.1506C3.34162 13.0391 3.42614 12.9503 3.5348 12.8842C3.64418 12.8182 3.77273 12.7862 3.92045 12.7884ZM3.92045 13.0227C3.83097 13.0227 3.75036 13.0451 3.67862 13.0898C3.6076 13.1339 3.55114 13.1935 3.50923 13.2688C3.46804 13.3434 3.44744 13.4261 3.44744 13.517C3.44744 13.608 3.46733 13.6907 3.5071 13.7653C3.54759 13.8391 3.60263 13.8981 3.67223 13.9421C3.74254 13.9854 3.82244 14.0071 3.91193 14.0071C3.9794 14.0071 4.04226 13.994 4.1005 13.9677C4.15874 13.9407 4.20952 13.9041 4.25284 13.858C4.29688 13.8111 4.33132 13.7582 4.35618 13.6992C4.38104 13.6396 4.39347 13.5774 4.39347 13.5128C4.39347 13.4276 4.37287 13.3477 4.33168 13.2731C4.29119 13.1985 4.23509 13.1381 4.16335 13.092C4.09233 13.0458 4.01136 13.0227 3.92045 13.0227Z" fill="black"/>
<path d="M1 18.5H1.00019L0.999807 18.4861L0.913734 15.3875C0.697845 7.61547 7.10643 1.28466 14.8752 1.59541L15.888 1.63592C21.0939 1.84416 25.5745 5.37891 26.9889 10.3934L28.0844 14.2774C29.1182 17.9426 27.2418 21.8009 23.7205 23.2508C22.3888 23.7992 21.2183 24.6768 20.3186 25.8013L19.6096 26.6877L19.6024 26.6966L19.5956 26.7059L18.5436 28.1525C17.9 29.0374 16.5 28.5822 16.5 27.488V24.0126C16.5 22.3431 14.1824 21.9228 13.5962 23.4861C13.4369 23.9109 12.782 23.9168 12.6419 23.4265C12.4247 22.6663 11.7557 22.2977 11.1261 22.3122C10.4935 22.3269 9.84381 22.7314 9.68689 23.5161L9.01317 26.8847C8.53298 28.6038 5.97625 28.1856 6.07715 26.3947L6.38133 20.9955C6.50561 18.7894 3.38073 18.2173 2.71536 20.3243C2.41299 21.2818 1 21.064 1 20.0599V18.5Z" stroke="black"/>
<path d="M17.6842 8.32969C17.8152 8.15213 18.07 8.12436 18.2362 8.26954V8.26954C18.385 8.3995 18.4083 8.62221 18.2898 8.78025L14.243 14.176C14.1147 14.347 13.8648 14.3648 13.7137 14.2137V14.2137C13.5908 14.0908 13.5762 13.8966 13.6794 13.7568L17.6842 8.32969Z" fill="black"/>
<path d="M4.56528 15.5887C4.33665 15.6225 4.13144 15.4451 4.13187 15.214V15.214C4.13222 15.0261 4.27054 14.8669 4.45659 14.8404L14.453 13.4157C14.6782 13.3836 14.8739 13.5709 14.8519 13.7972V13.7972C14.8363 13.9576 14.7134 14.0868 14.5539 14.1104L4.56528 15.5887Z" fill="black"/>
<circle cx="14" cy="14" r="1" fill="black"/>
</svg>
